<svg width="146" height="29" viewBox="0 0 146 29" fill="none" xmlns="http://www.w3.org/2000/svg">
<path d="M10.7557 10.7784C10.6989 10.1534 10.446 9.66761 9.99716 9.32102C9.55398 8.96875 8.92045 8.79261 8.09659 8.79261C7.55114 8.79261 7.09659 8.86364 6.73295 9.00568C6.36932 9.14773 6.09659 9.34375 5.91477 9.59375C5.73295 9.83807 5.6392 10.1193 5.63352 10.4375C5.62216 10.6989 5.6733 10.929 5.78693 11.1278C5.90625 11.3267 6.0767 11.5028 6.2983 11.6562C6.52557 11.804 6.7983 11.9347 7.11648 12.0483C7.43466 12.1619 7.79261 12.2614 8.19034 12.3466L9.69034 12.6875C10.554 12.875 11.3153 13.125 11.9744 13.4375C12.6392 13.75 13.196 14.1222 13.6449 14.554C14.0994 14.9858 14.4432 15.483 14.6761 16.0455C14.9091 16.608 15.0284 17.2386 15.0341 17.9375C15.0284 19.0398 14.75 19.9858 14.1989 20.7756C13.6477 21.5653 12.8551 22.1705 11.821 22.5909C10.7926 23.0114 9.55114 23.2216 8.09659 23.2216C6.63636 23.2216 5.36364 23.0028 4.27841 22.5653C3.19318 22.1278 2.34943 21.4631 1.74716 20.571C1.14489 19.679 0.835227 18.5511 0.818182 17.1875H4.85795C4.89205 17.75 5.04261 18.2188 5.30966 18.5938C5.5767 18.9688 5.94318 19.2528 6.40909 19.446C6.88068 19.6392 7.42614 19.7358 8.04545 19.7358C8.61364 19.7358 9.09659 19.6591 9.49432 19.5057C9.89773 19.3523 10.2074 19.1392 10.4233 18.8665C10.6392 18.5937 10.75 18.2812 10.7557 17.929C10.75 17.5994 10.6477 17.3182 10.4489 17.0852C10.25 16.8466 9.94318 16.642 9.52841 16.4716C9.11932 16.2955 8.59659 16.1335 7.96023 15.9858L6.13636 15.5597C4.625 15.2131 3.43466 14.6534 2.56534 13.8807C1.69602 13.1023 1.2642 12.0511 1.26989 10.7273C1.2642 9.64773 1.55398 8.7017 2.1392 7.8892C2.72443 7.0767 3.53409 6.44318 4.56818 5.98864C5.60227 5.53409 6.78125 5.30682 8.10511 5.30682C9.45739 5.30682 10.6307 5.53693 11.625 5.99716C12.625 6.4517 13.4006 7.09091 13.9517 7.91477C14.5028 8.73864 14.7841 9.69318 14.7955 10.7784H10.7557ZM17.1648 27.9091V9.90909H21.2898V12.1506H21.4176C21.5881 11.7528 21.8295 11.3693 22.142 11C22.4602 10.6307 22.8636 10.3295 23.3523 10.0966C23.8466 9.85795 24.4375 9.73864 25.125 9.73864C26.0341 9.73864 26.8835 9.97727 27.6733 10.4545C28.4688 10.9318 29.1108 11.6676 29.5994 12.6619C30.0881 13.6562 30.3324 14.9233 30.3324 16.4631C30.3324 17.946 30.0966 19.1875 29.625 20.1875C29.1591 21.1875 28.5284 21.9375 27.733 22.4375C26.9432 22.9375 26.0653 23.1875 25.0994 23.1875C24.4403 23.1875 23.8693 23.0795 23.3864 22.8636C22.9034 22.6477 22.4972 22.3636 22.1676 22.0114C21.8438 21.6591 21.5938 21.2812 21.4176 20.8778H21.3324V27.9091H17.1648ZM21.2472 16.4545C21.2472 17.1591 21.3409 17.7727 21.5284 18.2955C21.7216 18.8182 21.9972 19.2244 22.3551 19.5142C22.7188 19.7983 23.1534 19.9403 23.6591 19.9403C24.1705 19.9403 24.6051 19.7983 24.9631 19.5142C25.321 19.2244 25.5909 18.8182 25.7727 18.2955C25.9602 17.7727 26.054 17.1591 26.054 16.4545C26.054 15.75 25.9602 15.1392 25.7727 14.6222C25.5909 14.1051 25.321 13.7045 24.9631 13.4205C24.6108 13.1364 24.1761 12.9943 23.6591 12.9943C23.1477 12.9943 22.7131 13.1335 22.3551 13.4119C21.9972 13.6903 21.7216 14.0881 21.5284 14.6051C21.3409 15.1222 21.2472 15.7386 21.2472 16.4545ZM38.6271 23.2472C37.2521 23.2472 36.0703 22.9659 35.0817 22.4034C34.0987 21.8352 33.3402 21.0455 32.8061 20.0341C32.2777 19.017 32.0135 17.8381 32.0135 16.4972C32.0135 15.1506 32.2777 13.9716 32.8061 12.9602C33.3402 11.9432 34.0987 11.1534 35.0817 10.5909C36.0703 10.0227 37.2521 9.73864 38.6271 9.73864C40.0021 9.73864 41.1811 10.0227 42.1641 10.5909C43.1527 11.1534 43.9112 11.9432 44.4396 12.9602C44.9737 13.9716 45.2408 15.1506 45.2408 16.4972C45.2408 17.8381 44.9737 19.017 44.4396 20.0341C43.9112 21.0455 43.1527 21.8352 42.1641 22.4034C41.1811 22.9659 40.0021 23.2472 38.6271 23.2472ZM38.6527 20.1023C39.1527 20.1023 39.576 19.9489 39.9226 19.642C40.2692 19.3352 40.5334 18.9091 40.7152 18.3636C40.9027 17.8182 40.9964 17.1875 40.9964 16.4716C40.9964 15.7443 40.9027 15.108 40.7152 14.5625C40.5334 14.017 40.2692 13.5909 39.9226 13.2841C39.576 12.9773 39.1527 12.8239 38.6527 12.8239C38.1357 12.8239 37.6982 12.9773 37.3402 13.2841C36.9879 13.5909 36.718 14.017 36.5305 14.5625C36.3487 15.108 36.2578 15.7443 36.2578 16.4716C36.2578 17.1875 36.3487 17.8182 36.5305 18.3636C36.718 18.9091 36.9879 19.3352 37.3402 19.642C37.6982 19.9489 38.1357 20.1023 38.6527 20.1023ZM54.7649 9.90909V12.9773H46.5064V9.90909H54.7649ZM48.2365 6.77273H52.4041V18.8835C52.4041 19.1392 52.4439 19.3466 52.5234 19.5057C52.6087 19.6591 52.7308 19.7699 52.8899 19.8381C53.049 19.9006 53.2393 19.9318 53.4609 19.9318C53.62 19.9318 53.7876 19.9176 53.9638 19.8892C54.1456 19.8551 54.282 19.8267 54.3729 19.804L55.0036 22.8125C54.8047 22.8693 54.5234 22.9403 54.1598 23.0256C53.8018 23.1108 53.3729 23.1648 52.8729 23.1875C51.8956 23.233 51.0575 23.1193 50.3587 22.8466C49.6655 22.5682 49.1342 22.1364 48.7649 21.5511C48.4013 20.9659 48.2251 20.2301 48.2365 19.3438V6.77273ZM62.8615 23.2472C61.4808 23.2472 60.2962 22.9631 59.3075 22.3949C58.3246 21.8267 57.5689 21.0369 57.0405 20.0256C56.5121 19.0085 56.2479 17.8324 56.2479 16.4972C56.2479 15.1562 56.5121 13.9801 57.0405 12.9688C57.5746 11.9517 58.3331 11.1591 59.3161 10.5909C60.3047 10.0227 61.4837 9.73864 62.853 9.73864C64.0632 9.73864 65.1172 9.95739 66.0149 10.3949C66.9183 10.8324 67.6229 11.4517 68.1286 12.2528C68.6399 13.0483 68.9098 13.983 68.9382 15.0568H65.0433C64.9638 14.3864 64.7365 13.8608 64.3615 13.4801C63.9922 13.0994 63.5092 12.9091 62.9126 12.9091C62.4297 12.9091 62.0064 13.0455 61.6428 13.3182C61.2791 13.5852 60.995 13.983 60.7905 14.5114C60.5916 15.0341 60.4922 15.6818 60.4922 16.4545C60.4922 17.2273 60.5916 17.8807 60.7905 18.4148C60.995 18.9432 61.2791 19.3437 61.6428 19.6165C62.0064 19.8835 62.4297 20.017 62.9126 20.017C63.299 20.017 63.6399 19.9347 63.9354 19.7699C64.2365 19.6051 64.4837 19.3636 64.6768 19.0455C64.87 18.7216 64.9922 18.3295 65.0433 17.8693H68.9382C68.8984 18.9489 68.6286 19.892 68.1286 20.6989C67.6342 21.5057 66.9382 22.1335 66.0405 22.5824C65.1484 23.0256 64.0888 23.2472 62.8615 23.2472ZM77.1818 23.2472C75.8068 23.2472 74.625 22.9659 73.6364 22.4034C72.6534 21.8352 71.8949 21.0455 71.3608 20.0341C70.8324 19.017 70.5682 17.8381 70.5682 16.4972C70.5682 15.1506 70.8324 13.9716 71.3608 12.9602C71.8949 11.9432 72.6534 11.1534 73.6364 10.5909C74.625 10.0227 75.8068 9.73864 77.1818 9.73864C78.5568 9.73864 79.7358 10.0227 80.7188 10.5909C81.7074 11.1534 82.4659 11.9432 82.9943 12.9602C83.5284 13.9716 83.7955 15.1506 83.7955 16.4972C83.7955 17.8381 83.5284 19.017 82.9943 20.0341C82.4659 21.0455 81.7074 21.8352 80.7188 22.4034C79.7358 22.9659 78.5568 23.2472 77.1818 23.2472ZM77.2074 20.1023C77.7074 20.1023 78.1307 19.9489 78.4773 19.642C78.8239 19.3352 79.0881 18.9091 79.2699 18.3636C79.4574 17.8182 79.5511 17.1875 79.5511 16.4716C79.5511 15.7443 79.4574 15.108 79.2699 14.5625C79.0881 14.017 78.8239 13.5909 78.4773 13.2841C78.1307 12.9773 77.7074 12.8239 77.2074 12.8239C76.6903 12.8239 76.2528 12.9773 75.8949 13.2841C75.5426 13.5909 75.2727 14.017 75.0852 14.5625C74.9034 15.108 74.8125 15.7443 74.8125 16.4716C74.8125 17.1875 74.9034 17.8182 75.0852 18.3636C75.2727 18.9091 75.5426 19.3352 75.8949 19.642C76.2528 19.9489 76.6903 20.1023 77.2074 20.1023ZM90.098 15.5341V23H85.9304V9.90909H89.8935V12.3125H90.0384C90.3281 11.5114 90.8224 10.8835 91.5213 10.429C92.2202 9.96875 93.0526 9.73864 94.0185 9.73864C94.9389 9.73864 95.7372 9.94602 96.4134 10.3608C97.0952 10.7699 97.6236 11.3437 97.9986 12.0824C98.3793 12.8153 98.5668 13.6733 98.5611 14.6562V23H94.3935V15.4744C94.3991 14.7472 94.2145 14.179 93.8395 13.7699C93.4702 13.3608 92.956 13.1562 92.2969 13.1562C91.8594 13.1562 91.473 13.2528 91.1378 13.446C90.8082 13.6335 90.5526 13.9034 90.3707 14.2557C90.1946 14.608 90.1037 15.0341 90.098 15.5341ZM108.531 9.90909V12.9773H100.272V9.90909H108.531ZM102.002 6.77273H106.17V18.8835C106.17 19.1392 106.21 19.3466 106.289 19.5057C106.374 19.6591 106.496 19.7699 106.656 19.8381C106.815 19.9006 107.005 19.9318 107.227 19.9318C107.386 19.9318 107.553 19.9176 107.729 19.8892C107.911 19.8551 108.048 19.8267 108.138 19.804L108.769 22.8125C108.57 22.8693 108.289 22.9403 107.925 23.0256C107.567 23.1108 107.138 23.1648 106.638 23.1875C105.661 23.233 104.823 23.1193 104.124 22.8466C103.431 22.5682 102.9 22.1364 102.531 21.5511C102.167 20.9659 101.991 20.2301 102.002 19.3438V6.77273ZM110.657 23V9.90909H114.705V12.2955H114.842C115.08 11.4318 115.469 10.7898 116.009 10.3693C116.549 9.94318 117.177 9.73011 117.893 9.73011C118.086 9.73011 118.285 9.74432 118.489 9.77273C118.694 9.79545 118.884 9.83239 119.06 9.88352V13.5057C118.862 13.4375 118.6 13.3835 118.276 13.3438C117.958 13.304 117.674 13.2841 117.424 13.2841C116.93 13.2841 116.484 13.3949 116.086 13.6165C115.694 13.8324 115.384 14.1364 115.157 14.5284C114.935 14.9148 114.825 15.3693 114.825 15.892V23H110.657ZM126.19 23.2472C124.815 23.2472 123.633 22.9659 122.644 22.4034C121.661 21.8352 120.903 21.0455 120.369 20.0341C119.84 19.017 119.576 17.8381 119.576 16.4972C119.576 15.1506 119.84 13.9716 120.369 12.9602C120.903 11.9432 121.661 11.1534 122.644 10.5909C123.633 10.0227 124.815 9.73864 126.19 9.73864C127.565 9.73864 128.744 10.0227 129.727 10.5909C130.715 11.1534 131.474 11.9432 132.002 12.9602C132.536 13.9716 132.803 15.1506 132.803 16.4972C132.803 17.8381 132.536 19.017 132.002 20.0341C131.474 21.0455 130.715 21.8352 129.727 22.4034C128.744 22.9659 127.565 23.2472 126.19 23.2472ZM126.215 20.1023C126.715 20.1023 127.138 19.9489 127.485 19.642C127.832 19.3352 128.096 18.9091 128.278 18.3636C128.465 17.8182 128.559 17.1875 128.559 16.4716C128.559 15.7443 128.465 15.108 128.278 14.5625C128.096 14.017 127.832 13.5909 127.485 13.2841C127.138 12.9773 126.715 12.8239 126.215 12.8239C125.698 12.8239 125.261 12.9773 124.903 13.2841C124.55 13.5909 124.281 14.017 124.093 14.5625C123.911 15.108 123.82 15.7443 123.82 16.4716C123.82 17.1875 123.911 17.8182 124.093 18.3636C124.281 18.9091 124.55 19.3352 124.903 19.642C125.261 19.9489 125.698 20.1023 126.215 20.1023ZM139.106 5.54545V23H134.938V5.54545H139.106Z" fill="#00D767"/>
</svg>
