<svg width="256" height="256" viewBox="0 0 256 256" fill="none" xmlns="http://www.w3.org/2000/svg">
<rect width="256" height="256" rx="128" fill="#00D767"/>
<path d="M87.6477 114C87.4508 111.538 86.5275 109.617 84.8778 108.239C83.2528 106.86 80.7784 106.17 77.4545 106.17C75.3371 106.17 73.6013 106.429 72.2472 106.946C70.9176 107.438 69.9328 108.116 69.2926 108.977C68.6525 109.839 68.3201 110.824 68.2955 111.932C68.2462 112.843 68.4063 113.668 68.7756 114.406C69.1695 115.12 69.785 115.773 70.6222 116.364C71.4593 116.93 72.5303 117.447 73.8352 117.915C75.1402 118.383 76.6913 118.801 78.4886 119.17L84.6932 120.5C88.8788 121.386 92.4612 122.556 95.4403 124.009C98.4195 125.461 100.857 127.172 102.753 129.142C104.649 131.087 106.04 133.278 106.926 135.716C107.837 138.153 108.305 140.812 108.33 143.693C108.305 148.667 107.062 152.877 104.599 156.324C102.137 159.771 98.6165 162.393 94.0369 164.19C89.482 165.988 84.0038 166.886 77.6023 166.886C71.0284 166.886 65.2917 165.914 60.392 163.969C55.517 162.024 51.7254 159.032 49.017 154.994C46.3333 150.932 44.9792 145.737 44.9545 139.409H64.4545C64.5777 141.723 65.1563 143.669 66.1903 145.244C67.2244 146.82 68.6771 148.014 70.5483 148.827C72.4441 149.639 74.697 150.045 77.3068 150.045C79.4981 150.045 81.3324 149.775 82.8097 149.233C84.2869 148.691 85.4072 147.94 86.1705 146.98C86.9337 146.02 87.3277 144.924 87.3523 143.693C87.3277 142.536 86.946 141.527 86.2074 140.665C85.4934 139.778 84.3116 138.991 82.6619 138.301C81.0123 137.587 78.7841 136.922 75.9773 136.307L68.4432 134.682C61.7462 133.229 56.465 130.804 52.5994 127.406C48.7585 123.984 46.8504 119.318 46.875 113.409C46.8504 108.608 48.1307 104.41 50.7159 100.815C53.3258 97.196 56.9328 94.3769 61.5369 92.358C66.1657 90.339 71.4716 89.3295 77.4545 89.3295C83.5606 89.3295 88.8419 90.3513 93.2983 92.3949C97.7547 94.4384 101.189 97.3191 103.602 101.037C106.04 104.73 107.271 109.051 107.295 114H87.6477ZM153.516 86.8182L129.141 177.375H111.857L136.232 86.8182H153.516ZM186.625 167.034C180.47 167.034 175.201 165.815 170.818 163.378C166.436 160.916 163.075 157.493 160.736 153.111C158.397 148.704 157.227 143.595 157.227 137.784C157.227 131.973 158.397 126.877 160.736 122.494C163.075 118.087 166.436 114.665 170.818 112.227C175.201 109.765 180.47 108.534 186.625 108.534C192.189 108.534 197.003 109.544 201.065 111.562C205.152 113.557 208.316 116.388 210.557 120.057C212.797 123.701 213.93 127.985 213.955 132.909H195.045C194.775 129.93 193.913 127.665 192.46 126.114C191.032 124.538 189.186 123.75 186.92 123.75C185.148 123.75 183.597 124.267 182.267 125.301C180.938 126.311 179.903 127.849 179.165 129.918C178.426 131.961 178.057 134.534 178.057 137.636C178.057 140.739 178.426 143.324 179.165 145.392C179.903 147.436 180.938 148.974 182.267 150.009C183.597 151.018 185.148 151.523 186.92 151.523C188.422 151.523 189.752 151.178 190.909 150.489C192.066 149.775 193.002 148.741 193.716 147.386C194.455 146.008 194.898 144.333 195.045 142.364H213.955C213.881 147.362 212.736 151.72 210.52 155.438C208.304 159.131 205.165 161.987 201.102 164.006C197.064 166.025 192.239 167.034 186.625 167.034Z" fill="black"/>
</svg>
